<mxfile host="app.diagrams.net" modified="2020-12-02T09:45:31.852Z" agent="5.0 (Macintosh; Intel Mac OS X 10_15_7) AppleWebKit/537.36 (KHTML, like Gecko) Chrome/86.0.4240.111 Safari/537.36" etag="HBhi_7luGcq408iUmWdX" version="13.10.5" type="github">
  <diagram id="0UkZyT1e2V_y4Oysc9mY" name="Page-1">
    <mxGraphModel dx="706" dy="1809" grid="1" gridSize="10" guides="1" tooltips="1" connect="1" arrows="1" fold="1" page="1" pageScale="1" pageWidth="827" pageHeight="1169" math="0" shadow="0">
      <root>
        <mxCell id="0" />
        <mxCell id="1" parent="0" />
        <mxCell id="_CjjfjLsUDUbpJZPa8IN-1" value="" style="endArrow=classic;html=1;exitX=0.5;exitY=1;exitDx=0;exitDy=0;entryX=0.5;entryY=0;entryDx=0;entryDy=0;" edge="1" parent="1" source="_CjjfjLsUDUbpJZPa8IN-2">
          <mxGeometry width="50" height="50" relative="1" as="geometry">
            <mxPoint x="355" y="80" as="sourcePoint" />
            <mxPoint x="355" y="100" as="targetPoint" />
          </mxGeometry>
        </mxCell>
        <mxCell id="_CjjfjLsUDUbpJZPa8IN-2" value="&lt;font face=&quot;helvetica&quot;&gt;1.注册设备成功&lt;/font&gt;" style="rounded=1;whiteSpace=wrap;html=1;fillColor=#dae8fc;strokeColor=#6c8ebf;" vertex="1" parent="1">
          <mxGeometry x="295" y="20" width="120" height="60" as="geometry" />
        </mxCell>
        <mxCell id="_CjjfjLsUDUbpJZPa8IN-3" value="是" style="text;html=1;strokeColor=none;fillColor=none;align=center;verticalAlign=middle;whiteSpace=wrap;rounded=0;" vertex="1" parent="1">
          <mxGeometry x="365" y="170" width="40" height="20" as="geometry" />
        </mxCell>
        <mxCell id="_CjjfjLsUDUbpJZPa8IN-4" style="edgeStyle=orthogonalEdgeStyle;rounded=0;orthogonalLoop=1;jettySize=auto;html=1;exitX=0;exitY=0.5;exitDx=0;exitDy=0;entryX=1;entryY=0.5;entryDx=0;entryDy=0;" edge="1" parent="1" source="_CjjfjLsUDUbpJZPa8IN-5" target="_CjjfjLsUDUbpJZPa8IN-7">
          <mxGeometry relative="1" as="geometry" />
        </mxCell>
        <mxCell id="_CjjfjLsUDUbpJZPa8IN-5" value="需要账号推送能力" style="rhombus;whiteSpace=wrap;html=1;fillColor=#f5f5f5;strokeColor=#666666;fontColor=#333333;" vertex="1" parent="1">
          <mxGeometry x="285" y="100" width="140" height="60" as="geometry" />
        </mxCell>
        <mxCell id="_CjjfjLsUDUbpJZPa8IN-6" value="" style="edgeStyle=orthogonalEdgeStyle;rounded=0;orthogonalLoop=1;jettySize=auto;html=1;exitX=0.5;exitY=1;exitDx=0;exitDy=0;" edge="1" parent="1" source="_CjjfjLsUDUbpJZPa8IN-5">
          <mxGeometry relative="1" as="geometry">
            <mxPoint x="365" y="270" as="sourcePoint" />
            <mxPoint x="355" y="200" as="targetPoint" />
          </mxGeometry>
        </mxCell>
        <mxCell id="_CjjfjLsUDUbpJZPa8IN-7" value="&lt;font face=&quot;helvetica&quot;&gt;流程结束&lt;br&gt;&lt;/font&gt;" style="rounded=1;whiteSpace=wrap;html=1;fillColor=#e1d5e7;strokeColor=#9673a6;" vertex="1" parent="1">
          <mxGeometry x="100" y="100" width="120" height="60" as="geometry" />
        </mxCell>
        <mxCell id="_CjjfjLsUDUbpJZPa8IN-8" value="否" style="text;html=1;strokeColor=none;fillColor=none;align=center;verticalAlign=middle;whiteSpace=wrap;rounded=0;" vertex="1" parent="1">
          <mxGeometry x="245" y="110" width="40" height="20" as="geometry" />
        </mxCell>
        <mxCell id="_CjjfjLsUDUbpJZPa8IN-9" style="edgeStyle=orthogonalEdgeStyle;rounded=0;orthogonalLoop=1;jettySize=auto;html=1;exitX=0.5;exitY=1;exitDx=0;exitDy=0;entryX=0.5;entryY=0;entryDx=0;entryDy=0;" edge="1" parent="1" source="_CjjfjLsUDUbpJZPa8IN-10" target="_CjjfjLsUDUbpJZPa8IN-12">
          <mxGeometry relative="1" as="geometry" />
        </mxCell>
        <mxCell id="_CjjfjLsUDUbpJZPa8IN-10" value="&lt;font face=&quot;helvetica&quot;&gt;2.App获取要绑定的账号列表(例如登录&quot;微信&quot;账号)&lt;/font&gt;" style="rounded=0;whiteSpace=wrap;html=1;fillColor=#f5f5f5;strokeColor=#666666;fontColor=#333333;" vertex="1" parent="1">
          <mxGeometry x="295" y="200" width="120" height="60" as="geometry" />
        </mxCell>
        <mxCell id="_CjjfjLsUDUbpJZPa8IN-11" style="edgeStyle=orthogonalEdgeStyle;rounded=0;orthogonalLoop=1;jettySize=auto;html=1;exitX=0.5;exitY=1;exitDx=0;exitDy=0;entryX=0.5;entryY=0;entryDx=0;entryDy=0;" edge="1" parent="1" source="_CjjfjLsUDUbpJZPa8IN-12" target="_CjjfjLsUDUbpJZPa8IN-16">
          <mxGeometry relative="1" as="geometry" />
        </mxCell>
        <mxCell id="_CjjfjLsUDUbpJZPa8IN-12" value="是否获取成功" style="rhombus;whiteSpace=wrap;html=1;fillColor=#f5f5f5;strokeColor=#666666;fontColor=#333333;" vertex="1" parent="1">
          <mxGeometry x="285" y="300" width="140" height="60" as="geometry" />
        </mxCell>
        <mxCell id="_CjjfjLsUDUbpJZPa8IN-13" value="否" style="text;html=1;strokeColor=none;fillColor=none;align=center;verticalAlign=middle;whiteSpace=wrap;rounded=0;" vertex="1" parent="1">
          <mxGeometry x="245" y="300" width="40" height="20" as="geometry" />
        </mxCell>
        <mxCell id="_CjjfjLsUDUbpJZPa8IN-14" style="edgeStyle=orthogonalEdgeStyle;rounded=0;orthogonalLoop=1;jettySize=auto;html=1;exitX=0.5;exitY=1;exitDx=0;exitDy=0;entryX=0.5;entryY=0;entryDx=0;entryDy=0;" edge="1" parent="1" source="_CjjfjLsUDUbpJZPa8IN-16" target="_CjjfjLsUDUbpJZPa8IN-19">
          <mxGeometry relative="1" as="geometry" />
        </mxCell>
        <mxCell id="_CjjfjLsUDUbpJZPa8IN-15" style="edgeStyle=orthogonalEdgeStyle;rounded=0;orthogonalLoop=1;jettySize=auto;html=1;exitX=0;exitY=0.5;exitDx=0;exitDy=0;entryX=0.5;entryY=0;entryDx=0;entryDy=0;" edge="1" parent="1" source="_CjjfjLsUDUbpJZPa8IN-16" target="_CjjfjLsUDUbpJZPa8IN-24">
          <mxGeometry relative="1" as="geometry" />
        </mxCell>
        <mxCell id="_CjjfjLsUDUbpJZPa8IN-16" value="历史绑定的账号需要关心推送" style="rhombus;whiteSpace=wrap;html=1;fillColor=#f5f5f5;strokeColor=#666666;fontColor=#333333;" vertex="1" parent="1">
          <mxGeometry x="250" y="400" width="210" height="60" as="geometry" />
        </mxCell>
        <mxCell id="_CjjfjLsUDUbpJZPa8IN-17" value="是" style="text;html=1;strokeColor=none;fillColor=none;align=center;verticalAlign=middle;whiteSpace=wrap;rounded=0;" vertex="1" parent="1">
          <mxGeometry x="365" y="370" width="40" height="20" as="geometry" />
        </mxCell>
        <mxCell id="_CjjfjLsUDUbpJZPa8IN-18" style="edgeStyle=orthogonalEdgeStyle;rounded=0;orthogonalLoop=1;jettySize=auto;html=1;exitX=0.5;exitY=1;exitDx=0;exitDy=0;entryX=0.5;entryY=0;entryDx=0;entryDy=0;" edge="1" parent="1" source="_CjjfjLsUDUbpJZPa8IN-19" target="_CjjfjLsUDUbpJZPa8IN-21">
          <mxGeometry relative="1" as="geometry" />
        </mxCell>
        <mxCell id="_CjjfjLsUDUbpJZPa8IN-19" value="&lt;font color=&quot;#ea6b66&quot;&gt;&lt;font face=&quot;helvetica&quot;&gt;3.按需解绑历史“账号类型”:&amp;nbsp;&lt;/font&gt;&lt;span style=&quot;font-family: &amp;#34;helvetica&amp;#34;&quot;&gt;delAccounts，例如解绑&quot;QQ&quot;账号&lt;/span&gt;&lt;/font&gt;" style="rounded=0;whiteSpace=wrap;html=1;fillColor=#fff2cc;strokeColor=#d6b656;" vertex="1" parent="1">
          <mxGeometry x="295" y="500" width="120" height="60" as="geometry" />
        </mxCell>
        <mxCell id="_CjjfjLsUDUbpJZPa8IN-20" style="edgeStyle=orthogonalEdgeStyle;rounded=0;orthogonalLoop=1;jettySize=auto;html=1;exitX=0.5;exitY=1;exitDx=0;exitDy=0;entryX=0.5;entryY=0;entryDx=0;entryDy=0;" edge="1" parent="1" source="_CjjfjLsUDUbpJZPa8IN-21" target="_CjjfjLsUDUbpJZPa8IN-28">
          <mxGeometry relative="1" as="geometry" />
        </mxCell>
        <mxCell id="_CjjfjLsUDUbpJZPa8IN-21" value="&lt;font color=&quot;#ea6b66&quot;&gt;&lt;font face=&quot;helvetica&quot;&gt;5.绑定新账号列表：调用&lt;/font&gt;&lt;span style=&quot;font-family: &amp;#34;helvetica&amp;#34;&quot;&gt;upsertAccounts, 例如绑定&quot;微信&quot;账号&lt;/span&gt;&lt;/font&gt;" style="rounded=1;whiteSpace=wrap;html=1;fillColor=#fff2cc;strokeColor=#d6b656;" vertex="1" parent="1">
          <mxGeometry x="295" y="600" width="120" height="60" as="geometry" />
        </mxCell>
        <mxCell id="_CjjfjLsUDUbpJZPa8IN-22" value="是" style="text;html=1;strokeColor=none;fillColor=none;align=center;verticalAlign=middle;whiteSpace=wrap;rounded=0;" vertex="1" parent="1">
          <mxGeometry x="365" y="470" width="40" height="20" as="geometry" />
        </mxCell>
        <mxCell id="_CjjfjLsUDUbpJZPa8IN-23" style="edgeStyle=orthogonalEdgeStyle;rounded=0;orthogonalLoop=1;jettySize=auto;html=1;exitX=0.5;exitY=1;exitDx=0;exitDy=0;entryX=0;entryY=0.5;entryDx=0;entryDy=0;" edge="1" parent="1" source="_CjjfjLsUDUbpJZPa8IN-24" target="_CjjfjLsUDUbpJZPa8IN-28">
          <mxGeometry relative="1" as="geometry" />
        </mxCell>
        <mxCell id="_CjjfjLsUDUbpJZPa8IN-24" value="&lt;font face=&quot;helvetica&quot; color=&quot;#ea6b66&quot;&gt;4.清空历史账号并绑定新账号:clearAndAppendAccounts&lt;/font&gt;" style="rounded=0;whiteSpace=wrap;html=1;fillColor=#fff2cc;strokeColor=#d6b656;" vertex="1" parent="1">
          <mxGeometry x="90" y="500" width="170" height="60" as="geometry" />
        </mxCell>
        <mxCell id="_CjjfjLsUDUbpJZPa8IN-25" value="否" style="text;html=1;strokeColor=none;fillColor=none;align=center;verticalAlign=middle;whiteSpace=wrap;rounded=0;" vertex="1" parent="1">
          <mxGeometry x="195" y="400" width="40" height="20" as="geometry" />
        </mxCell>
        <mxCell id="_CjjfjLsUDUbpJZPa8IN-26" style="edgeStyle=orthogonalEdgeStyle;rounded=0;orthogonalLoop=1;jettySize=auto;html=1;exitX=1;exitY=0.5;exitDx=0;exitDy=0;entryX=0;entryY=0.5;entryDx=0;entryDy=0;" edge="1" parent="1" source="_CjjfjLsUDUbpJZPa8IN-28" target="_CjjfjLsUDUbpJZPa8IN-31">
          <mxGeometry relative="1" as="geometry" />
        </mxCell>
        <mxCell id="_CjjfjLsUDUbpJZPa8IN-27" style="edgeStyle=orthogonalEdgeStyle;rounded=0;orthogonalLoop=1;jettySize=auto;html=1;exitX=0.5;exitY=1;exitDx=0;exitDy=0;entryX=0.5;entryY=0;entryDx=0;entryDy=0;" edge="1" parent="1" source="_CjjfjLsUDUbpJZPa8IN-28" target="_CjjfjLsUDUbpJZPa8IN-36">
          <mxGeometry relative="1" as="geometry" />
        </mxCell>
        <mxCell id="_CjjfjLsUDUbpJZPa8IN-28" value="&lt;font face=&quot;helvetica&quot;&gt;6.用户正常使用App&lt;br&gt;&lt;/font&gt;" style="rounded=0;whiteSpace=wrap;html=1;fillColor=#f5f5f5;strokeColor=#666666;fontColor=#333333;" vertex="1" parent="1">
          <mxGeometry x="295" y="700" width="120" height="60" as="geometry" />
        </mxCell>
        <mxCell id="_CjjfjLsUDUbpJZPa8IN-29" style="edgeStyle=orthogonalEdgeStyle;rounded=0;orthogonalLoop=1;jettySize=auto;html=1;exitX=0.5;exitY=0;exitDx=0;exitDy=0;entryX=1;entryY=0.5;entryDx=0;entryDy=0;" edge="1" parent="1" source="_CjjfjLsUDUbpJZPa8IN-31" target="_CjjfjLsUDUbpJZPa8IN-16">
          <mxGeometry relative="1" as="geometry" />
        </mxCell>
        <mxCell id="_CjjfjLsUDUbpJZPa8IN-30" style="edgeStyle=orthogonalEdgeStyle;rounded=0;orthogonalLoop=1;jettySize=auto;html=1;exitX=0.5;exitY=1;exitDx=0;exitDy=0;entryX=1;entryY=0.75;entryDx=0;entryDy=0;" edge="1" parent="1" source="_CjjfjLsUDUbpJZPa8IN-31" target="_CjjfjLsUDUbpJZPa8IN-28">
          <mxGeometry relative="1" as="geometry" />
        </mxCell>
        <mxCell id="_CjjfjLsUDUbpJZPa8IN-31" value="需要变更绑定的账号列表" style="rhombus;whiteSpace=wrap;html=1;fillColor=#f5f5f5;strokeColor=#666666;fontColor=#333333;" vertex="1" parent="1">
          <mxGeometry x="478" y="700" width="177" height="60" as="geometry" />
        </mxCell>
        <mxCell id="_CjjfjLsUDUbpJZPa8IN-32" value="是" style="text;html=1;strokeColor=none;fillColor=none;align=center;verticalAlign=middle;whiteSpace=wrap;rounded=0;" vertex="1" parent="1">
          <mxGeometry x="565" y="670" width="40" height="20" as="geometry" />
        </mxCell>
        <mxCell id="_CjjfjLsUDUbpJZPa8IN-33" value="否" style="text;html=1;strokeColor=none;fillColor=none;align=center;verticalAlign=middle;whiteSpace=wrap;rounded=0;" vertex="1" parent="1">
          <mxGeometry x="565" y="760" width="40" height="20" as="geometry" />
        </mxCell>
        <mxCell id="_CjjfjLsUDUbpJZPa8IN-34" style="edgeStyle=orthogonalEdgeStyle;rounded=0;orthogonalLoop=1;jettySize=auto;html=1;exitX=0.5;exitY=1;exitDx=0;exitDy=0;entryX=0.5;entryY=0;entryDx=0;entryDy=0;" edge="1" parent="1" source="_CjjfjLsUDUbpJZPa8IN-36" target="_CjjfjLsUDUbpJZPa8IN-37">
          <mxGeometry relative="1" as="geometry" />
        </mxCell>
        <mxCell id="_CjjfjLsUDUbpJZPa8IN-35" style="edgeStyle=orthogonalEdgeStyle;rounded=0;orthogonalLoop=1;jettySize=auto;html=1;exitX=0;exitY=0.5;exitDx=0;exitDy=0;entryX=0;entryY=0.75;entryDx=0;entryDy=0;" edge="1" parent="1" source="_CjjfjLsUDUbpJZPa8IN-36" target="_CjjfjLsUDUbpJZPa8IN-28">
          <mxGeometry relative="1" as="geometry" />
        </mxCell>
        <mxCell id="_CjjfjLsUDUbpJZPa8IN-36" value="完全关闭账号推送能力" style="rhombus;whiteSpace=wrap;html=1;fillColor=#f5f5f5;strokeColor=#666666;fontColor=#333333;" vertex="1" parent="1">
          <mxGeometry x="266.5" y="800" width="177" height="60" as="geometry" />
        </mxCell>
        <mxCell id="_CjjfjLsUDUbpJZPa8IN-37" value="&lt;font face=&quot;helvetica&quot;&gt;&lt;font color=&quot;#ea6b66&quot;&gt;7.调用清空账号:clearAccounts&lt;/font&gt;&lt;br&gt;&lt;/font&gt;" style="rounded=0;whiteSpace=wrap;html=1;fillColor=#fff2cc;strokeColor=#d6b656;" vertex="1" parent="1">
          <mxGeometry x="295" y="900" width="120" height="60" as="geometry" />
        </mxCell>
        <mxCell id="_CjjfjLsUDUbpJZPa8IN-38" value="是" style="text;html=1;strokeColor=none;fillColor=none;align=center;verticalAlign=middle;whiteSpace=wrap;rounded=0;" vertex="1" parent="1">
          <mxGeometry x="360" y="870" width="40" height="20" as="geometry" />
        </mxCell>
        <mxCell id="_CjjfjLsUDUbpJZPa8IN-39" value="否" style="text;html=1;strokeColor=none;fillColor=none;align=center;verticalAlign=middle;whiteSpace=wrap;rounded=0;" vertex="1" parent="1">
          <mxGeometry x="205" y="770" width="40" height="20" as="geometry" />
        </mxCell>
        <mxCell id="_CjjfjLsUDUbpJZPa8IN-40" style="edgeStyle=orthogonalEdgeStyle;rounded=0;orthogonalLoop=1;jettySize=auto;html=1;entryX=0.5;entryY=1;entryDx=0;entryDy=0;exitX=0;exitY=0.5;exitDx=0;exitDy=0;" edge="1" parent="1" source="_CjjfjLsUDUbpJZPa8IN-12" target="_CjjfjLsUDUbpJZPa8IN-7">
          <mxGeometry relative="1" as="geometry">
            <mxPoint x="160" y="170" as="targetPoint" />
            <Array as="points">
              <mxPoint x="160" y="330" />
            </Array>
            <mxPoint x="245" y="330" as="sourcePoint" />
          </mxGeometry>
        </mxCell>
        <mxCell id="_CjjfjLsUDUbpJZPa8IN-41" value="&lt;h1&gt;备注&lt;/h1&gt;&lt;p&gt;同一种账号类型只支持绑定一个账号&lt;br&gt;&lt;/p&gt;" style="text;html=1;strokeColor=#82b366;spacing=5;spacingTop=-20;whiteSpace=wrap;overflow=hidden;rounded=0;fillColor=#d5e8d4;" vertex="1" parent="1">
          <mxGeometry x="95" y="970" width="510" height="120" as="geometry" />
        </mxCell>
      </root>
    </mxGraphModel>
  </diagram>
</mxfile>
